<?xml version="1.0" encoding="iso-8859-1"?>
<!-- Uploaded to: SVG Repo, www.svgrepo.com, Generator: SVG Repo Mixer Tools -->
<svg fill="#000000" height="800px" width="800px" version="1.1" id="Layer_1" xmlns="http://www.w3.org/2000/svg" xmlns:xlink="http://www.w3.org/1999/xlink" 
	 viewBox="0 0 359.998 359.998" xml:space="preserve">
<path id="XMLID_239_" d="M304.022,110c-24.813,0-45,20.186-45,45c0,3.377,0.392,6.73,1.138,10h-30.161v-31.587
	c2.582-1.291,4.783-3.318,6.278-5.903c5.706-9.861,8.722-21.104,8.722-32.512c0-30.677-21.369-56.44-50-63.232V15
	c0-8.284-6.716-15-15-15c-8.284,0-15,6.716-15,15v16.766c-28.631,6.792-50,32.556-50,63.232c0,11.408,3.016,22.65,8.722,32.512
	c1.495,2.585,3.696,4.612,6.278,5.903V165H99.838c0.746-3.27,1.138-6.623,1.138-10c0-24.814-20.187-45-45-45
	c-24.814,0-45,20.186-45,45c0,6.425,1.382,12.773,4.023,18.594V180v164.998c0,8.284,6.716,15,15,15h120h60h120
	c8.284,0,15-6.716,15-15V180v-6.406c2.642-5.82,4.023-12.169,4.023-18.594C349.022,130.186,328.836,110,304.022,110z
	 M291.028,162.486c-1.331-2.3-2.006-4.818-2.006-7.486c0-8.271,6.729-15,15-15c8.272,0,15,6.729,15,15
	c0,2.668-0.675,5.186-2.006,7.486c-0.465,0.804-0.853,1.646-1.16,2.514h-23.668C291.881,164.132,291.493,163.29,291.028,162.486z
	 M179.999,59.999c19.299,0,35,15.7,35,34.999c0,3.398-0.497,6.77-1.461,10H146.46c-0.964-3.23-1.461-6.602-1.461-10
	C144.999,75.699,160.7,59.999,179.999,59.999z M159.999,135h40v30h-40V135z M55.976,140c8.271,0,15,6.729,15,15
	c0,2.668-0.675,5.186-2.006,7.486c-0.465,0.804-0.853,1.646-1.16,2.514H44.142c-0.308-0.868-0.695-1.71-1.16-2.514
	c-1.331-2.3-2.006-4.818-2.006-7.486C40.976,146.729,47.704,140,55.976,140z M164.999,329.998V300c0-8.272,6.729-15,15-15
	s15,6.728,15,15v29.998H164.999z M314.999,329.998h-30v-85c0-8.284-6.716-15-15-15c-8.284,0-15,6.716-15,15v85h-30V300
	c0-24.814-20.186-45-45-45s-45,20.186-45,45v29.998h-30v-85c0-8.284-6.716-15-15-15s-15,6.716-15,15v85h-30V195h36.953h63.047h70
	h63.047h36.953V329.998z"/>
</svg>