<?xml version="1.0" encoding="iso-8859-1"?>
<!-- Uploaded to: SVG Repo, www.svgrepo.com, Generator: SVG Repo Mixer Tools -->
<svg fill="#000000" height="800px" width="800px" version="1.1" id="Layer_1" xmlns="http://www.w3.org/2000/svg" xmlns:xlink="http://www.w3.org/1999/xlink" 
	 viewBox="0 0 512 512" xml:space="preserve">
<g>
	<g>
		<path d="M512,50.088V16.697c0-6.753-4.067-12.841-10.307-15.424c-6.236-2.583-13.42-1.155-18.195,3.618
			c-18.381,18.38-42.816,28.502-68.808,28.502H97.31c-25.993,0-50.429-10.122-68.808-28.5c-4.775-4.776-11.956-6.205-18.195-3.62
			C4.068,3.857,0,9.945,0,16.697v33.391c0,40.313,28.725,74.042,66.782,81.799c0,10.893,0,91.299,0,101.853H16.696
			C7.475,233.74,0,241.215,0,250.435v66.782c0.001,9.22,7.475,16.696,16.697,16.696h50.087v161.391
			c0,9.22,7.475,16.696,16.696,16.696h66.782c9.22,0,16.696-7.475,16.696-16.696V333.913h178.087v161.391
			c0,9.22,7.475,16.696,16.696,16.696h66.782c9.22,0,16.696-7.475,16.696-16.696V333.913h50.087c9.22,0,16.696-7.475,16.696-16.696
			v-66.782c0-9.22-7.475-16.696-16.696-16.696h-50.087c0-10.549,0-90.962,0-101.853C483.275,124.131,512,90.402,512,50.088z
			 M66.784,300.522H33.392v-33.391h33.391V300.522z M133.566,478.609h-33.391v-278.26h33.391V478.609z M345.044,300.522H166.957
			v-33.391h55.652h66.782h55.652V300.522z M166.957,233.74v-33.391h38.956v33.391H166.957z M239.305,233.74v-33.391h33.391v33.391
			H239.305z M345.044,233.74h-38.956v-33.391h38.956V233.74z M411.826,478.609h-33.391v-278.26h33.391V478.609z M411.826,166.957
			c-12.614,0-297.548,0-311.651,0v-33.391h311.651V166.957z M478.609,267.131v33.391h-33.391v-33.391H478.609z M428.522,100.175
			H83.479c-27.597,0-50.051-22.431-50.087-50.019C52.695,61.009,74.559,66.784,97.31,66.784h317.38
			c22.751,0,44.615-5.774,63.919-16.629C478.573,77.743,456.118,100.175,428.522,100.175z"/>
	</g>
</g>
</svg>