<?xml version="1.0" encoding="iso-8859-1"?>
<!-- Uploaded to: SVG Repo, www.svgrepo.com, Generator: SVG Repo Mixer Tools -->
<svg fill="#000000" height="800px" width="800px" version="1.1" id="Layer_1" xmlns="http://www.w3.org/2000/svg" xmlns:xlink="http://www.w3.org/1999/xlink" 
	 viewBox="0 0 512 512" xml:space="preserve">
<g>
	<g>
		<path d="M506.02,209.802L266.717,9.455c-6.506-5.35-15.422-4.996-21.39-0.034c-0.014,0.012-0.03,0.022-0.044,0.034L5.979,209.802
			c-5.384,4.508-7.373,11.902-4.974,18.502c2.398,6.6,8.669,10.995,15.692,10.995h89.043v50.087
			c0,70.466,48.761,129.748,114.311,145.903l-42.638,42.639c-6.52,6.519-6.52,17.091,0,23.611c6.519,6.519,17.091,6.519,23.611,0
			l54.977-54.977l54.977,54.977c3.26,3.26,7.533,4.891,11.805,4.891c4.272,0,8.546-1.631,11.805-4.891
			c6.52-6.519,6.52-17.091,0-23.611l-42.638-42.639c65.55-16.155,114.311-75.436,114.311-145.903v-50.087h89.043
			c7.022,0,13.294-4.394,15.692-10.995C513.393,221.704,511.404,214.31,506.02,209.802z M272.695,84.012l71.106,121.896h-71.106
			V84.012z M122.434,205.908H62.646l130.75-109.465l-63.855,109.465H122.434z M239.304,84.012v121.896h-71.107L239.304,84.012z
			 M372.869,289.386c0,64.442-52.427,116.869-116.869,116.869s-116.869-52.427-116.869-116.869v-50.087h233.652
			c0.029,0,0.057,0.002,0.086,0.002V289.386z M389.564,205.908h-7.107L318.602,96.443l130.75,109.465H389.564z"/>
	</g>
</g>
</svg>